<mxfile host="app.diagrams.net" modified="2023-09-19T03:13:54.137Z" agent="Mozilla/5.0 (X11; Linux x86_64) AppleWebKit/537.36 (KHTML, like Gecko) Chrome/116.0.0.0 Safari/537.36" etag="fjZwwvI4rtPWuch8fXpj" version="21.7.5" type="github">
  <diagram name="Page-1" id="1LHcdtJ4EUh9txlJJZTB">
    <mxGraphModel dx="1058" dy="623" grid="1" gridSize="10" guides="1" tooltips="1" connect="1" arrows="1" fold="1" page="1" pageScale="1" pageWidth="850" pageHeight="1100" math="0" shadow="0">
      <root>
        <mxCell id="0" />
        <mxCell id="1" parent="0" />
        <mxCell id="Mb_DcOqXv9ly9bfv32Si-1" value="mulai" style="ellipse;whiteSpace=wrap;html=1;" vertex="1" parent="1">
          <mxGeometry x="330" y="70" width="160" height="110" as="geometry" />
        </mxCell>
        <mxCell id="Mb_DcOqXv9ly9bfv32Si-2" value="isi catatan" style="shape=parallelogram;perimeter=parallelogramPerimeter;whiteSpace=wrap;html=1;fixedSize=1;" vertex="1" parent="1">
          <mxGeometry x="340" y="270" width="160" height="90" as="geometry" />
        </mxCell>
        <mxCell id="Mb_DcOqXv9ly9bfv32Si-4" value="menyimpan catatan pengunjung" style="rounded=0;whiteSpace=wrap;html=1;" vertex="1" parent="1">
          <mxGeometry x="330" y="440" width="160" height="90" as="geometry" />
        </mxCell>
        <mxCell id="Mb_DcOqXv9ly9bfv32Si-5" value="anggota perpustakaan" style="rhombus;whiteSpace=wrap;html=1;" vertex="1" parent="1">
          <mxGeometry x="345" y="610" width="130" height="130" as="geometry" />
        </mxCell>
        <mxCell id="Mb_DcOqXv9ly9bfv32Si-8" value="rekap catatan" style="rounded=0;whiteSpace=wrap;html=1;" vertex="1" parent="1">
          <mxGeometry x="560" y="627.5" width="140" height="95" as="geometry" />
        </mxCell>
        <mxCell id="Mb_DcOqXv9ly9bfv32Si-9" value="" style="endArrow=none;html=1;rounded=0;entryX=0.5;entryY=1;entryDx=0;entryDy=0;exitX=0.425;exitY=0.022;exitDx=0;exitDy=0;exitPerimeter=0;" edge="1" parent="1" source="Mb_DcOqXv9ly9bfv32Si-2" target="Mb_DcOqXv9ly9bfv32Si-1">
          <mxGeometry width="50" height="50" relative="1" as="geometry">
            <mxPoint x="410" y="260" as="sourcePoint" />
            <mxPoint x="450" y="260" as="targetPoint" />
          </mxGeometry>
        </mxCell>
        <mxCell id="Mb_DcOqXv9ly9bfv32Si-10" value="" style="endArrow=none;html=1;rounded=0;exitX=1;exitY=0.5;exitDx=0;exitDy=0;entryX=0;entryY=0.5;entryDx=0;entryDy=0;" edge="1" parent="1" source="Mb_DcOqXv9ly9bfv32Si-5" target="Mb_DcOqXv9ly9bfv32Si-8">
          <mxGeometry width="50" height="50" relative="1" as="geometry">
            <mxPoint x="520" y="320" as="sourcePoint" />
            <mxPoint x="530" y="670" as="targetPoint" />
          </mxGeometry>
        </mxCell>
        <mxCell id="Mb_DcOqXv9ly9bfv32Si-11" value="" style="endArrow=none;html=1;rounded=0;exitX=0.5;exitY=1;exitDx=0;exitDy=0;entryX=0.5;entryY=0;entryDx=0;entryDy=0;" edge="1" parent="1" source="Mb_DcOqXv9ly9bfv32Si-4" target="Mb_DcOqXv9ly9bfv32Si-5">
          <mxGeometry width="50" height="50" relative="1" as="geometry">
            <mxPoint x="430" y="290" as="sourcePoint" />
            <mxPoint x="450" y="600" as="targetPoint" />
          </mxGeometry>
        </mxCell>
        <mxCell id="Mb_DcOqXv9ly9bfv32Si-12" value="" style="endArrow=none;html=1;rounded=0;entryX=0.5;entryY=0;entryDx=0;entryDy=0;" edge="1" parent="1" target="Mb_DcOqXv9ly9bfv32Si-4">
          <mxGeometry width="50" height="50" relative="1" as="geometry">
            <mxPoint x="410" y="360" as="sourcePoint" />
            <mxPoint x="440" y="210" as="targetPoint" />
          </mxGeometry>
        </mxCell>
        <mxCell id="Mb_DcOqXv9ly9bfv32Si-14" value="yes" style="text;html=1;strokeColor=none;fillColor=none;align=center;verticalAlign=middle;whiteSpace=wrap;rounded=0;" vertex="1" parent="1">
          <mxGeometry x="470" y="650" width="60" height="30" as="geometry" />
        </mxCell>
        <mxCell id="Mb_DcOqXv9ly9bfv32Si-16" value="selesai" style="ellipse;whiteSpace=wrap;html=1;" vertex="1" parent="1">
          <mxGeometry x="330" y="830" width="160" height="110" as="geometry" />
        </mxCell>
        <mxCell id="Mb_DcOqXv9ly9bfv32Si-17" value="" style="endArrow=none;html=1;rounded=0;entryX=0.5;entryY=1;entryDx=0;entryDy=0;" edge="1" parent="1" source="Mb_DcOqXv9ly9bfv32Si-16" target="Mb_DcOqXv9ly9bfv32Si-5">
          <mxGeometry width="50" height="50" relative="1" as="geometry">
            <mxPoint x="400" y="910" as="sourcePoint" />
            <mxPoint x="450" y="860" as="targetPoint" />
          </mxGeometry>
        </mxCell>
        <mxCell id="Mb_DcOqXv9ly9bfv32Si-18" value="no" style="text;html=1;strokeColor=none;fillColor=none;align=center;verticalAlign=middle;whiteSpace=wrap;rounded=0;" vertex="1" parent="1">
          <mxGeometry x="400" y="760" width="60" height="30" as="geometry" />
        </mxCell>
        <mxCell id="Mb_DcOqXv9ly9bfv32Si-21" value="" style="endArrow=none;html=1;rounded=0;entryX=0.5;entryY=1;entryDx=0;entryDy=0;" edge="1" parent="1" source="Mb_DcOqXv9ly9bfv32Si-16" target="Mb_DcOqXv9ly9bfv32Si-8">
          <mxGeometry width="50" height="50" relative="1" as="geometry">
            <mxPoint x="400" y="790" as="sourcePoint" />
            <mxPoint x="450" y="740" as="targetPoint" />
            <Array as="points">
              <mxPoint x="630" y="880" />
            </Array>
          </mxGeometry>
        </mxCell>
      </root>
    </mxGraphModel>
  </diagram>
</mxfile>
